<svg width="56" height="56" viewBox="0 0 56 56" fill="none" xmlns="http://www.w3.org/2000/svg">
<g clip-path="url(#clip0_1_555)">
<path d="M51.9333 21.3683C52.8767 17.6056 50.773 13.7491 47.0986 12.5054C47.8347 10.5045 47.547 8.27029 46.328 6.52133C45.1089 4.77227 43.1124 3.72907 40.9804 3.72723C40.6601 3.72677 40.3401 3.74946 40.0229 3.79523C38.8381 1.69324 36.7087 0.295085 34.309 0.0435591C31.9092 -0.208059 29.5362 0.718048 27.9412 2.52856C26.3461 0.717956 23.9732 -0.208059 21.5734 0.0434668C19.1737 0.295085 17.0443 1.69315 15.8595 3.79514C15.5423 3.74937 15.2223 3.72667 14.902 3.72713C12.7701 3.72898 10.7735 4.77218 9.55442 6.52123C8.33535 8.27029 8.04766 10.5045 8.78378 12.5053C5.10943 13.749 3.00569 17.6055 3.94906 21.3682C1.52653 22.6697 0.0109096 25.1929 2.18208e-05 27.9428C-0.00394576 29.5763 0.533246 31.165 1.52745 32.4609C0.714463 34.3708 0.733655 36.5329 1.58032 38.4281C2.42698 40.3232 4.02462 41.7801 5.98968 42.449C5.25356 44.4498 5.54135 46.684 6.76032 48.433C7.97929 50.182 9.9759 51.2253 12.1079 51.2271C12.3917 51.227 12.6751 51.2077 12.9564 51.1693C14.3458 54.0202 17.225 55.8429 20.3962 55.879C23.5674 55.915 26.4874 54.1583 27.9413 51.3398C29.3951 54.1583 32.3151 55.915 35.4863 55.879C38.6575 55.8429 41.5368 54.0202 42.9262 51.1693C43.2074 51.2077 43.4909 51.227 43.7747 51.2271C45.9066 51.2253 47.9032 50.1821 49.1223 48.433C50.3413 46.6839 50.629 44.4497 49.8929 42.449C51.8579 41.7802 53.4556 40.3233 54.3023 38.4281C55.1489 36.5329 55.1681 34.3708 54.3551 32.4609C55.3494 31.165 55.8865 29.5762 55.8826 27.9428C55.8715 25.1929 54.3559 22.6697 51.9333 21.3683ZM52.4363 32.7571C53.2375 34.2579 53.3094 36.0425 52.6313 37.6029C51.9533 39.1633 50.5996 40.3284 48.9557 40.7669C48.4345 40.0768 47.7814 39.4972 47.0343 39.0616C46.7456 38.8781 46.3795 38.8675 46.0808 39.0343C45.782 39.201 45.5988 39.518 45.6034 39.8602C45.608 40.2022 45.7998 40.5143 46.1029 40.6729C46.7807 41.0661 47.3493 41.6225 47.757 42.2916C47.757 42.2981 47.7627 42.3065 47.7664 42.313C48.2072 43.0334 48.4376 43.8629 48.4314 44.7075C48.4283 47.2782 46.3451 49.3613 43.7745 49.3644C43.3817 49.3643 42.9906 49.3126 42.6113 49.2106C42.1464 49.0841 41.6617 49.3328 41.4936 49.7844C40.3845 52.7301 37.3291 54.4628 34.2318 53.9025C31.1345 53.3423 28.8797 50.6491 28.8727 47.5015C28.8727 46.9871 28.4557 46.5702 27.9413 46.5702C27.4269 46.5702 27.0099 46.9871 27.0099 47.5015C27.0053 50.6511 24.7498 53.347 21.6506 53.9074C18.5513 54.4679 15.4944 52.7327 14.387 49.7843C14.2189 49.3327 13.7342 49.084 13.2694 49.2106C12.8906 49.3123 12.5001 49.364 12.108 49.3643C9.53735 49.3612 7.45418 47.2781 7.45114 44.7074C7.44634 43.8624 7.6783 43.0328 8.12083 42.3129C8.1283 42.3008 8.13107 42.2877 8.13762 42.2756C8.54416 41.6138 9.10829 41.0632 9.77965 40.6727C10.0828 40.5141 10.2746 40.2021 10.2792 39.86C10.2838 39.5179 10.1006 39.2008 9.80179 39.0341C9.50302 38.8674 9.13699 38.8779 8.84828 39.0614C8.10191 39.4961 7.44892 40.0741 6.92686 40.7621C5.28392 40.3225 3.93143 39.1569 3.25427 37.5968C2.5771 36.0367 2.64917 34.2527 3.45006 32.7523C3.63534 32.4034 3.58053 31.9757 3.31314 31.6849C2.37688 30.664 1.85925 29.3281 1.86275 27.9428C1.87051 25.6429 3.28103 23.5806 5.42149 22.7392C5.42804 22.7392 5.43173 22.7318 5.43828 22.729C6.33293 22.3842 7.3012 22.2751 8.2501 22.4123C8.75961 22.4854 9.23184 22.1315 9.30492 21.622C9.378 21.1125 9.02414 20.6403 8.51463 20.5672C7.58317 20.4361 6.63538 20.481 5.72053 20.6994C5.39298 19.2091 5.69636 17.6497 6.5588 16.3908C7.42124 15.132 8.76588 14.2859 10.274 14.0532C10.2899 14.0532 10.3029 14.0439 10.3178 14.0402C11.1398 13.9138 11.9795 13.9697 12.7775 14.2041C12.8625 14.2287 12.9507 14.2416 13.0392 14.2423C13.5023 14.2431 13.8956 13.9033 13.9623 13.445C14.029 12.9867 13.7488 12.549 13.3046 12.4178C12.4431 12.1664 11.5434 12.0718 10.6484 12.1384C10.381 11.5437 10.2435 10.8989 10.2451 10.2468C10.2481 7.67617 12.3313 5.593 14.9019 5.58996C14.9838 5.58996 15.0621 5.60112 15.1422 5.60583C14.7997 6.91236 14.8236 8.28801 15.2111 9.5819C15.3288 9.97644 15.6916 10.2468 16.1033 10.2469C16.1936 10.2465 16.2832 10.2334 16.3697 10.2078C16.6065 10.1373 16.8056 9.97561 16.9231 9.75832C17.0407 9.54102 17.0671 9.2859 16.9966 9.04914C16.6222 7.78901 16.7024 6.43755 17.2229 5.23048L17.2285 5.22116C18.0641 3.30325 19.901 2.01277 21.9885 1.87686C24.0761 1.74095 26.0648 2.78239 27.1421 4.57574C27.3218 4.84055 27.6211 4.99916 27.9412 4.99916C28.2613 4.99916 28.5605 4.84055 28.7403 4.57574C29.8172 2.78313 31.8049 1.74187 33.8916 1.87695C35.9784 2.01203 37.8152 3.30094 38.652 5.21747V5.22679C38.9596 5.92859 39.1181 6.68658 39.1177 7.45279C39.1179 7.99358 39.0401 8.53151 38.8867 9.05006C38.8162 9.28682 38.8426 9.54195 38.9602 9.75924C39.0777 9.97653 39.2769 10.1382 39.5136 10.2087C39.6003 10.2337 39.6898 10.2465 39.78 10.2469C40.192 10.2467 40.5549 9.9758 40.6722 9.58098C41.0588 8.28718 41.0823 6.91209 40.7402 5.60592C40.8222 5.60592 40.9013 5.59005 40.9843 5.59005C43.5549 5.5931 45.6381 7.67626 45.6411 10.2469C45.6423 10.8979 45.5048 11.5419 45.2378 12.1357C44.3425 12.0687 43.4424 12.1634 42.5806 12.4151C42.1337 12.5437 41.8501 12.9824 41.9163 13.4427C41.9825 13.9031 42.3782 14.2441 42.8433 14.2415C42.9336 14.2411 43.0233 14.228 43.1097 14.2024C43.9082 13.9687 44.7483 13.9137 45.5704 14.0413C45.5844 14.0413 45.5975 14.0506 45.6123 14.0534C47.1204 14.2861 48.4651 15.1322 49.3276 16.391C50.19 17.6498 50.4934 19.2093 50.1658 20.6996C49.251 20.4808 48.3032 20.4356 47.3717 20.5665C47.0421 20.6131 46.7625 20.8319 46.638 21.1407C46.5135 21.4494 46.5633 21.801 46.7684 22.0632C46.9735 22.3253 47.3029 22.4581 47.6325 22.4115C48.5835 22.2761 49.5533 22.386 50.4499 22.7309L50.4629 22.7393C52.6028 23.5813 54.0124 25.6434 54.0198 27.9429C54.0248 29.3297 53.5074 30.6674 52.5706 31.6898C52.304 31.9812 52.2502 32.4089 52.4363 32.7571Z" fill="#C18C2C"/>
<path d="M35.3936 13.9725C32.4348 13.9982 29.6662 15.4354 27.9427 17.8406C26.2191 15.4355 23.4506 13.9982 20.4918 13.9725C15.7129 13.9725 12.1094 18.1339 12.1094 23.6532C12.1094 29.614 16.621 33.7372 23.4497 39.9709C24.6605 41.0783 25.9514 42.2547 27.3056 43.5241C27.6639 43.86 28.2214 43.86 28.5797 43.5241C29.934 42.2547 31.2239 41.0783 32.4356 39.9709C39.2644 33.7372 43.7759 29.6197 43.7759 23.6532C43.776 18.134 40.1725 13.9725 35.3936 13.9725ZM31.1801 38.5962C30.1557 39.5275 29.0715 40.5194 27.9427 41.5709C26.8139 40.5194 25.7316 39.5322 24.7052 38.5962C18.2415 32.6931 13.9721 28.7962 13.9721 23.6532C13.9721 19.1957 16.7746 15.8353 20.4917 15.8353C24.9846 15.8353 27.0187 19.7964 27.1044 19.9734C27.2788 20.2688 27.5963 20.4501 27.9394 20.4501C28.2824 20.4501 28.5999 20.2688 28.7743 19.9734C28.7985 19.9333 30.8643 15.8353 35.3935 15.8353C39.1106 15.8353 41.9131 19.1956 41.9131 23.6532C41.9133 28.7962 37.6439 32.6931 31.1801 38.5962Z" fill="#C18C2C"/>
<path d="M32.5983 26.0798H30.7355V24.2171C30.7355 23.1883 29.9015 22.3544 28.8728 22.3544H27.0101C25.9813 22.3544 25.1473 23.1884 25.1473 24.2171V26.0798H23.2846C22.2558 26.0798 21.4219 26.9139 21.4219 27.9426V29.8053C21.4219 30.8341 22.2559 31.668 23.2846 31.668H25.1473V33.5308C25.1473 34.5596 25.9814 35.3935 27.0101 35.3935H28.8728C29.9016 35.3935 30.7355 34.5595 30.7355 33.5308V31.668H32.5983C33.6271 31.668 34.461 30.834 34.461 29.8053V27.9426C34.461 26.9139 33.6271 26.0798 32.5983 26.0798ZM32.5983 29.8053H29.8042C29.2898 29.8053 28.8728 30.2223 28.8728 30.7367V33.5308H27.0101V30.7367C27.0101 30.2223 26.5931 29.8053 26.0787 29.8053H23.2846V27.9426H26.0787C26.5931 27.9426 27.0101 27.5256 27.0101 27.0112V24.2171H28.8728V27.0112C28.8728 27.5256 29.2898 27.9426 29.8042 27.9426H32.5983V29.8053Z" fill="#C18C2C"/>
</g>
<defs>
<clipPath id="clip0_1_555">
<rect width="55.8824" height="55.8824" fill="white"/>
</clipPath>
</defs>
</svg>
